<svg width="128" height="128" viewBox="0 0 128 128" xmlns="http://www.w3.org/2000/svg" role="img" aria-label="Budgeto logo">
  <defs>
    <linearGradient id="g1" x1="0" x2="1" y1="0" y2="1">
      <stop offset="0%" stop-color="#0ea5e9"/>
      <stop offset="100%" stop-color="#0369a1"/>
    </linearGradient>
  </defs>
  <!-- Background B shape -->
  <path d="M36 12h34c20 0 34 12 34 28 0 10-6 18-15 22 11 4 19 12 19 24 0 18-16 30-38 30H36c-4 0-8-4-8-8V20c0-4 4-8 8-8z"
        fill="#0f172a"/>
  <!-- Rupee symbol -->
  <g transform="translate(44,30)" fill="none" stroke="#22c55e" stroke-width="8" stroke-linecap="round" stroke-linejoin="round">
    <path d="M0 0h40"/>
    <path d="M0 16h36"/>
    <path d="M0 16c0 14 10 24 24 24H0"/>
  </g>
</svg>


